<?xml version="1.0" standalone="no"?><!DOCTYPE svg PUBLIC "-//W3C//DTD SVG 1.1//EN" "http://www.w3.org/Graphics/SVG/1.1/DTD/svg11.dtd"><svg t="1752831110167" class="icon" viewBox="0 0 1024 1024" version="1.1" xmlns="http://www.w3.org/2000/svg" p-id="14352" xmlns:xlink="http://www.w3.org/1999/xlink" width="200" height="200"><path d="M867.624211 490.135908H745.56554A234.896398 234.896398 0 0 0 531.107315 278.529521V156.090605a19.012254 19.012254 0 0 0-38.024508 0V278.529521a234.801337 234.801337 0 0 0-214.743409 213.887857H156.280728a19.012254 19.012254 0 0 0 0 38.024508h121.963609A234.801337 234.801337 0 0 0 495.269216 746.135908V867.909395a19.012254 19.012254 0 0 0 38.024508 0V745.850724a234.991459 234.991459 0 0 0 212.747123-217.690308h121.583364a19.012254 19.012254 0 0 0 0-38.024508z m-355.52915 218.640921a196.586706 196.586706 0 1 1 196.491645-196.491645 196.681768 196.681768 0 0 1-196.491645 196.491645z" fill="#2c2c2c" p-id="14353"></path><path d="M512.095061 512.285184m-107.79948 0a107.79948 107.79948 0 1 0 215.59896 0 107.79948 107.79948 0 1 0-215.59896 0Z" fill="#2c2c2c" p-id="14354"></path></svg>