<?xml version="1.0" standalone="no"?><!DOCTYPE svg PUBLIC "-//W3C//DTD SVG 1.1//EN" "http://www.w3.org/Graphics/SVG/1.1/DTD/svg11.dtd"><svg t="1752830556927" class="icon" viewBox="0 0 1024 1024" version="1.1" xmlns="http://www.w3.org/2000/svg" p-id="6984" xmlns:xlink="http://www.w3.org/1999/xlink" width="200" height="200"><path d="M663.893333 317.44c-37.546667 0-73.386667 6.826667-107.52 18.773333l-143.36-256c-6.826667-13.653333-22.186667-22.186667-37.546666-22.186666s-29.013333 8.533333-37.546667 22.186666L40.96 614.4c-6.826667 13.653333-6.826667 29.013333 0 42.666667s22.186667 20.48 37.546667 20.48h264.533333c18.773333 162.133333 155.306667 288.426667 322.56 288.426666 179.2 0 324.266667-145.066667 324.266667-324.266666s-146.773333-324.266667-325.973334-324.266667zM375.466667 187.733333l225.28 404.48H150.186667L375.466667 187.733333z m288.426666 692.906667c-119.466667 0-218.453333-88.746667-235.52-203.093333h244.053334c15.36 0 29.013333-8.533333 37.546666-20.48 6.826667-13.653333 8.533333-29.013333 0-42.666667L597.333333 413.013333c20.48-6.826667 42.666667-10.24 66.56-10.24 131.413333 0 238.933333 107.52 238.933334 238.933334s-107.52 238.933333-238.933334 238.933333z" p-id="6985"></path></svg>