<?xml version="1.0" standalone="no"?><!DOCTYPE svg PUBLIC "-//W3C//DTD SVG 1.1//EN" "http://www.w3.org/Graphics/SVG/1.1/DTD/svg11.dtd"><svg t="1752830980342" class="icon" viewBox="0 0 1024 1024" version="1.1" xmlns="http://www.w3.org/2000/svg" p-id="11288" xmlns:xlink="http://www.w3.org/1999/xlink" width="200" height="200"><path d="M 995.458 186.88 l -11.9467 -33.28 l -19.6267 -15.36 h -36.6933 L 808.578 261.973 l -67.4133 -65.7067 L 857.218 80.2133 L 864.045 70.8267 v -34.1333 L 856.365 26.4533 L 846.978 20.48 L 823.938 11.0933 L 799.191 5.12 L 771.031 0 h -44.3733 L 667.778 11.0933 L 608.045 39.2533 L 574.765 68.2667 l -24.7467 29.8667 l -27.3067 34.1333 l -10.24 23.8933 l -21.3333 63.1467 v 73.3867 l 18.7733 70.8267 l 12.8 18.7733 l -46.9333 44.3733 l -58.0267 -60.5867 l -129.707 -130.56 L 277.805 170.667 L 266.711 155.307 L 120.791 66.56 L 96.0446 68.2667 l -85.3333 85.3333 V 170.667 l 7.68 34.9867 L 96.0446 323.413 l 13.6533 11.0933 l 34.1333 5.12 h 27.3067 L 352.045 525.653 l -196.267 170.667 l -59.7333 58.88 l -9.38667 18.7733 l -6.82667 18.7733 v 42.6667 l 6.82667 36.6933 l 32.4267 38.4 l 42.6667 37.5467 l 67.4133 11.0933 l 33.28 -20.48 l 80.2133 -93.0133 l 152.747 -170.667 l 7.68 7.68 l -11.0933 21.3333 l -5.97333 26.4533 l 14.5067 37.5467 l 242.347 250.027 L 778.711 1024 l 28.16 -11.9467 l 127.147 -127.147 V 844.8 l -12.8 -33.28 L 693.378 564.907 l -16.2133 -16.2133 l -29.8667 4.26667 l -27.3067 12.8 l -11.9467 6.82667 l -13.6533 -7.68 l 20.48 -25.6 l 31.5733 -34.9867 l 60.5867 13.6533 h 38.4 l 68.2667 -5.97333 l 54.6133 -22.1867 l 39.2533 -24.7467 L 949.378 426.667 l 40.1067 -59.7333 l 19.6267 -85.3333 v -39.2533 Z m -785.067 89.6 l -11.9467 -5.12 l -17.0667 -1.70667 h -29.8667 L 96.0446 177.493 l 22.1867 -24.7467 l 92.16 53.76 l 11.9467 59.7333 l 199.68 209.92 l -14.5067 5.97333 Z M 599.511 658.773 h 22.1867 l 13.6533 -7.68 l 20.48 -21.3333 L 864.045 849.067 L 772.738 938.667 L 561.965 726.187 l 15.36 -16.2133 l 11.0933 -12.8 v -22.1867 l -5.97333 -12.8 l -9.38667 -13.6533 l -17.0667 -17.92 l -11.0933 -7.68 l 5.12 -6.82667 l 5.97333 -5.97333 v 7.68 l 11.9467 15.36 l 19.6267 19.6267 Z m 331.947 -381.44 l -5.97333 36.6933 l -17.0667 41.8133 l -32.4267 40.1067 l -16.2133 14.5067 l -39.2533 23.8933 l -41.8133 10.24 h -60.5867 l -48.64 -13.6533 l -17.92 -10.24 h -22.1867 L 614.871 426.667 l -396.8 445.44 H 183.085 l -33.28 -34.1333 v -29.0133 l 4.26667 -9.38667 l 31.5733 -31.5733 l 414.72 -351.573 l 7.68 -7.68 V 375.467 l -10.24 -13.6533 L 583.298 341.333 l -10.24 -26.4533 V 226.987 l 5.97333 -23.8933 l 9.38667 -32.4267 l 19.6267 -34.1333 l 30.72 -29.0133 l 30.72 -17.0667 l 32.4267 -11.9467 l 27.3067 -5.12 h 30.72 L 660.098 174.933 l -4.26667 8.53333 V 214.187 l 128 131.413 l 9.38667 5.12 h 23.8933 l 11.0933 -5.12 l 102.4 -98.1333 v 30.72 Z" fill="" p-id="11289"></path></svg>